HIERARCHY
ROOT root
{
	OFFSET	0	13.1	24.9
	CHANNELS 6  Xposition Yposition Zposition Xrotation Yrotation Zrotation
	JOINT spine_1
	{
		OFFSET	0	9.99999	0
		CHANNELS 3  Xrotation Yrotation Zrotation
		JOINT spine_2
		{
			OFFSET	0	112	-10
			CHANNELS 3  Xrotation Yrotation Zrotation
			JOINT spine_3
			{
				OFFSET	0	206.5	19.3
				CHANNELS 3  Xrotation Yrotation Zrotation
				JOINT spine_4
				{
					OFFSET	0	110.4	14.6
					CHANNELS 3  Xrotation Yrotation Zrotation
					JOINT neck_1
					{
						OFFSET	0	71.8	-50.3
						CHANNELS 3  Xrotation Yrotation Zrotation
						JOINT neck_2
						{
							OFFSET	0	86.2	-25.8
							CHANNELS 3  Xrotation Yrotation Zrotation
							JOINT head_ee
							{
								OFFSET	0	179.8	-8.7
								CHANNELS 3  Xrotation Yrotation Zrotation
								End Site
								{
									OFFSET	1	0	0
								}
							}
						}
					}
					JOINT left_clavicle
					{
						OFFSET	-43.2	22.4	-70.8
						CHANNELS 3  Xrotation Yrotation Zrotation
						JOINT left_shoulder
						{
							OFFSET	-93.9	-5.79999	48.7
							CHANNELS 3  Xrotation Yrotation Zrotation
							JOINT left_elbow
							{
								OFFSET	-291.4	-30.8	15.2
								CHANNELS 3  Xrotation Yrotation Zrotation
								JOINT left_lowarm_twist
								{
									OFFSET	-110.7	-3.89999	13.6
									CHANNELS 3  Xrotation Yrotation Zrotation
									JOINT left_hand
									{
										OFFSET	-110.7	-3.89999	13.6
										CHANNELS 3  Xrotation Yrotation Zrotation
										JOINT left_ee
										{
											OFFSET	-80.8	-5.10001	12.1
											CHANNELS 3  Xrotation Yrotation Zrotation
											End Site
											{
												OFFSET	1	0	0
											}
										}
									}
								}
							}
						}
					}
					JOINT right_clavicle
					{
						OFFSET	43.2	22.4	-70.8
						CHANNELS 3  Xrotation Yrotation Zrotation
						JOINT right_shoulder
						{
							OFFSET	93.9	-5.79999	48.7
							CHANNELS 3  Xrotation Yrotation Zrotation
							JOINT right_elbow
							{
								OFFSET	291.4	-30.8	15.2
								CHANNELS 3  Xrotation Yrotation Zrotation
								JOINT right_lowarm_twist
								{
									OFFSET	110.7	-3.89999	13.6
									CHANNELS 3  Xrotation Yrotation Zrotation
									JOINT right_hand
									{
										OFFSET	110.7	-3.89999	13.6
										CHANNELS 3  Xrotation Yrotation Zrotation
										JOINT right_ee
										{
											OFFSET	80.8	-5.10001	12.1
											CHANNELS 3  Xrotation Yrotation Zrotation
											End Site
											{
												OFFSET	1	0	0
											}
										}
									}
								}
							}
						}
					}
				}
			}
		}
	}
	JOINT left_hip
	{
		OFFSET	-82.8	-127.5	0.300001
		CHANNELS 3  Xrotation Yrotation Zrotation
		JOINT left_knee
		{
			OFFSET	-28.2	-396.7	2.2
			CHANNELS 3  Xrotation Yrotation Zrotation
			JOINT left_ankle
			{
				OFFSET	-11.7	-411.3	35.4
				CHANNELS 3  Xrotation Yrotation Zrotation
				JOINT left_toes
				{
					OFFSET	0	-60	-88.6
					CHANNELS 3  Xrotation Yrotation Zrotation
					JOINT left_foot_ee
					{
						OFFSET	-22.5	-16.5	-42.2
						CHANNELS 3  Xrotation Yrotation Zrotation
						End Site
						{
							OFFSET	1	0	0
						}
					}
				}
			}
		}
	}
	JOINT right_hip
	{
		OFFSET	82.8	-127.5	0.300001
		CHANNELS 3  Xrotation Yrotation Zrotation
		JOINT right_knee
		{
			OFFSET	28.2	-396.7	2.2
			CHANNELS 3  Xrotation Yrotation Zrotation
			JOINT right_ankle
			{
				OFFSET	11.7	-411.3	35.4
				CHANNELS 3  Xrotation Yrotation Zrotation
				JOINT right_toes
				{
					OFFSET	0	-60	-88.6
					CHANNELS 3  Xrotation Yrotation Zrotation
					JOINT right_foot_ee
					{
						OFFSET	22.5	-16.5	-42.2
						CHANNELS 3  Xrotation Yrotation Zrotation
						End Site
						{
							OFFSET	1	0	0
						}
					}
				}
			}
		}
	}
}
MOTION
Frames: 12
Frame Time: 0.02
3574.42 741.953 -1474.73 -7.51139886909 85.2647830225 4.61863905262 -0.0418339 0.573598 2.82213 -0.037489 0.392932 2.85287 -0.0153574 -0.216234 2.87166 -0.0267844 0.239813 2.86979 -5.742 15.9443 -4.1537 -5.49021 32.5078 -1.27615 -0.0 0.0 -0.0 -4.48333 21.7102 -3.86912 2.00744 -21.0094 64.5642 1.56375 -37.76 0.534812 -19.5045 -1.07908 2.23641 -0.197592 20.9238 7.24626 -0.0 0.0 -0.0 12.5018 21.4853 -24.9758 -8.73692 22.2583 -65.4019 0.484903 13.5071 -0.0574231 15.4678 -0.283369 1.94958 1.83245 13.4533 -6.6216 0.0 0.0 0.0 -8.08965 39.6196 2.60425 4.32416 -0.202067 -0.632526 31.4903 -14.8502 -4.32606 -38.4531 0.0 0.0 -0.0 0.0 -0.0 6.4423 23.3179 -2.14958 -13.1855 -0.314576 -1.99459 33.9178 -4.8688 4.2926 -25.6984 0.0 0.0 0.0 0.0 0.0 
3573.18867717 739.456 -1470.38845142 -6.71101391707 81.7046036731 4.15339591854 0.0656724 0.467683 2.76576 0.069881 0.290813 2.78989 0.0862591 -0.297971 2.78913 0.0754331 0.146082 2.80119 -5.30303 15.1475 -4.88319 -4.97851 31.5301 -2.31029 -0.0 0.0 -0.0 -3.93082 21.5069 -3.12043 3.44566 -20.7785 62.7215 1.72373 -40.4901 0.635791 -19.2597 -1.06092 2.21084 -0.433794 19.0324 5.08787 -0.0 0.0 -0.0 12.5236 22.6658 -24.9239 -10.9931 22.2753 -64.732 0.397782 11.1475 -0.0388191 15.2733 -0.283095 1.92473 1.68968 11.951 -6.32043 0.0 0.0 0.0 -8.16462 40.3589 2.86739 5.1025 -0.243493 -0.744709 32.7584 -14.9695 -4.46474 -38.5475 0.0 0.0 -0.0 0.0 -0.0 7.2702 23.5179 -2.48954 -13.8941 -0.318398 -2.10325 35.4724 -4.08557 4.44544 -26.3841 0.0 0.0 0.0 0.0 0.0 
3567.14131582 738.99 -1467.93865576 -5.39626487884 77.7399652548 2.88633996944 0.156257 0.497932 2.79344 0.160541 0.319242 2.81944 0.178436 -0.271761 2.8244 0.167349 0.177527 2.83188 -4.82744 14.6252 -5.32565 -4.4368 30.8584 -3.00391 -0.0 0.0 -0.0 -3.44793 21.7489 -2.37443 3.49713 -20.2631 61.8979 1.82446 -42.1028 0.702275 -19.1578 -1.0534 2.20018 -0.581526 17.3416 3.50255 -0.0 0.0 -0.0 12.7029 23.3557 -25.2734 -12.8869 22.2154 -64.6609 0.334101 9.39767 -0.0274613 14.9219 -0.282386 1.87985 1.52939 10.0441 -6.06601 0.0 0.0 0.0 -9.0001 40.8161 3.56497 5.52057 -0.266374 -0.804736 33.8278 -14.5454 -4.56341 -39.0825 0.0 0.0 -0.0 0.0 -0.0 7.00947 23.0108 -2.32841 -13.4657 -0.316247 -2.03755 36.0914 -3.34751 4.50617 -26.729 0.0 0.0 0.0 0.0 0.0 
3563.31400368 741.186 -1469.38650436 -3.98866594004 73.1118920534 1.17152754468 0.182077 0.479062 2.85601 0.186566 0.296432 2.88068 0.203683 -0.305534 2.87973 0.192143 0.152904 2.89184 -5.51931 14.4078 -4.89948 -5.23903 30.1933 -2.39356 -0.0 0.0 -0.0 -3.35267 21.8967 -2.20749 3.5949 -19.7551 60.8614 1.9607 -44.1602 0.795428 -19.067 -1.04671 2.19066 -0.673077 15.849 2.31835 -0.0 0.0 -0.0 12.6481 22.4284 -25.233 -13.5948 22.4144 -64.3948 0.300908 8.47832 -0.0223041 14.5428 -0.281312 1.83144 1.4299 8.92778 -5.87271 0.0 0.0 0.0 -9.34181 41.1239 4.0214 5.71555 -0.277195 -0.832675 34.8434 -14.2512 -4.6577 -39.3224 0.0 0.0 -0.0 0.0 -0.0 6.76743 22.6274 -2.01952 -13.1304 -0.314222 -1.98615 35.591 -2.97626 4.45976 -27.0098 0.0 0.0 0.0 0.0 0.0 
3554.32656497 738.698 -1471.25673513 -4.75354463204 69.7034360723 1.81853029984 0.265081 0.361356 2.76042 0.269302 0.18504 2.7778 0.280118 -0.389677 2.75657 0.269518 0.0503869 2.7835 -6.56049 14.6443 -4.19993 -6.42538 30.1984 -1.32688 -0.0 0.0 -0.0 -2.98421 22.0304 -1.65662 4.16928 -19.4367 59.9066 2.13574 -46.608 0.92006 -19.0239 -1.04354 2.18615 -0.856589 13.8513 0.32758 -0.0 0.0 -0.0 12.3387 21.3735 -24.6087 -14.4049 22.5699 -65.206 0.294905 8.31158 -0.0214278 14.3958 -0.280809 1.81267 1.50531 8.36066 -6.62823 0.0 0.0 0.0 -9.53013 41.3437 4.25769 5.79133 -0.281427 -0.843524 34.3809 -13.743 -4.59673 -40.1391 0.0 0.0 -0.0 0.0 -0.0 6.58336 24.3422 -1.99549 -13.4983 -0.316428 -2.04255 36.6858 -2.41186 4.56524 -27.0243 0.0 0.0 0.0 0.0 0.0 
3541.05008566 734.977 -1472.90544062 -2.35993880304 64.7912811506 -0.747791713566 0.305568 0.36652 2.83751 0.310028 0.185294 2.85506 0.321155 -0.403291 2.83252 0.309963 0.0489235 2.86064 -5.91457 14.7891 -3.48349 -5.73354 29.8989 -0.755787 -0.0 0.0 -0.0 -3.39407 23.3559 -1.96036 4.439 -18.8773 59.4473 2.40687 -50.0052 1.1226 -18.51 -1.00602 2.13209 -0.664717 12.9486 1.14232 -0.0 0.0 -0.0 12.0811 19.6974 -24.1414 -18.3349 24.1615 -64.6619 0.405225 11.3507 -0.040271 14.0383 -0.279386 1.76703 1.35923 9.08655 -5.32513 0.0 0.0 0.0 -10.7552 40.9467 4.3742 4.63149 -0.218242 -0.676888 36.7838 -13.4485 -4.82398 -40.1293 0.0 0.0 -0.0 0.0 -0.0 5.35482 23.8389 -1.59003 -13.9431 -0.318612 -2.11076 37.4243 -2.58579 4.63285 -25.5552 0.0 0.0 0.0 0.0 0.0 
3541.01292334 734.977 -1473.8094409 -2.23241455081 63.2413254633 -0.889642770799 0.305568 0.36652 2.83751 0.310028 0.185294 2.85506 0.321155 -0.403291 2.83252 0.309963 0.0489235 2.86064 -5.91457 14.7891 -3.48349 -5.73354 29.8989 -0.755787 -0.0 0.0 -0.0 -3.39407 23.3559 -1.96036 4.439 -18.8773 59.4473 2.40687 -50.0052 1.1226 -18.51 -1.00602 2.13209 -0.664717 12.9486 1.14232 -0.0 0.0 -0.0 12.0811 19.6974 -24.1414 -18.3349 24.1615 -64.6619 0.405225 11.3507 -0.040271 14.0383 -0.279386 1.76703 1.35923 9.08655 -5.32513 0.0 0.0 0.0 -10.7552 40.9467 4.3742 4.63149 -0.218242 -0.676888 36.7838 -13.4485 -4.82398 -40.1293 0.0 0.0 -0.0 0.0 -0.0 5.35482 23.8389 -1.59003 -13.9431 -0.318612 -2.11076 37.4243 -2.58579 4.63285 -25.5552 0.0 0.0 0.0 0.0 0.0 
3541.00137621 734.977 -1475.00528911 -2.08578100246 61.1923780793 -1.05535666883 0.305568 0.36652 2.83751 0.310028 0.185294 2.85506 0.321155 -0.403291 2.83252 0.309963 0.0489235 2.86064 -5.91457 14.7891 -3.48349 -5.73354 29.8989 -0.755787 -0.0 0.0 -0.0 -3.39407 23.3559 -1.96036 4.439 -18.8773 59.4473 2.40687 -50.0052 1.1226 -18.51 -1.00602 2.13209 -0.664717 12.9486 1.14232 -0.0 0.0 -0.0 12.0811 19.6974 -24.1414 -18.3349 24.1615 -64.6619 0.405225 11.3507 -0.040271 14.0383 -0.279386 1.76703 1.35923 9.08655 -5.32513 0.0 0.0 0.0 -10.7552 40.9467 4.3742 4.63149 -0.218242 -0.676888 36.7838 -13.4485 -4.82398 -40.1293 0.0 0.0 -0.0 0.0 -0.0 5.35482 23.8389 -1.59003 -13.9431 -0.318612 -2.11076 37.4243 -2.58579 4.63285 -25.5552 0.0 0.0 0.0 0.0 0.0 
3541.03651475 734.977 -1476.28663491 -1.95117888894 58.9960037365 -1.2106060875 0.305568 0.36652 2.83751 0.310028 0.185294 2.85506 0.321155 -0.403291 2.83252 0.309963 0.0489235 2.86064 -5.91457 14.7891 -3.48349 -5.73354 29.8989 -0.755787 -0.0 0.0 -0.0 -3.39407 23.3559 -1.96036 4.439 -18.8773 59.4473 2.40687 -50.0052 1.1226 -18.51 -1.00602 2.13209 -0.664717 12.9486 1.14232 -0.0 0.0 -0.0 12.0811 19.6974 -24.1414 -18.3349 24.1615 -64.6619 0.405225 11.3507 -0.040271 14.0383 -0.279386 1.76703 1.35923 9.08655 -5.32513 0.0 0.0 0.0 -10.7552 40.9467 4.3742 4.63149 -0.218242 -0.676888 36.7838 -13.4485 -4.82398 -40.1293 0.0 0.0 -0.0 0.0 -0.0 5.35482 23.8389 -1.59003 -13.9431 -0.318612 -2.11076 37.4243 -2.58579 4.63285 -25.5552 0.0 0.0 0.0 0.0 0.0 
3541.1827529 734.977 -1478.21792277 -1.78238229073 55.6767636403 -1.41102778397 0.305568 0.36652 2.83751 0.310028 0.185294 2.85506 0.321155 -0.403291 2.83252 0.309963 0.0489235 2.86064 -5.91457 14.7891 -3.48349 -5.73354 29.8989 -0.755787 -0.0 0.0 -0.0 -3.39407 23.3559 -1.96036 4.439 -18.8773 59.4473 2.40687 -50.0052 1.1226 -18.51 -1.00602 2.13209 -0.664717 12.9486 1.14232 -0.0 0.0 -0.0 12.0811 19.6974 -24.1414 -18.3349 24.1615 -64.6619 0.405225 11.3507 -0.040271 14.0383 -0.279386 1.76703 1.35923 9.08655 -5.32513 0.0 0.0 0.0 -10.7552 40.9467 4.3742 4.63149 -0.218242 -0.676888 36.7838 -13.4485 -4.82398 -40.1293 0.0 0.0 -0.0 0.0 -0.0 5.35482 23.8389 -1.59003 -13.9431 -0.318612 -2.11076 37.4243 -2.58579 4.63285 -25.5552 0.0 0.0 0.0 0.0 0.0 
3541.63458801 734.977 -1481.21050623 -1.57957982892 50.4884917257 -1.66442848554 0.305568 0.36652 2.83751 0.310028 0.185294 2.85506 0.321155 -0.403291 2.83252 0.309963 0.0489235 2.86064 -5.91457 14.7891 -3.48349 -5.73354 29.8989 -0.755787 -0.0 0.0 -0.0 -3.39407 23.3559 -1.96036 4.439 -18.8773 59.4473 2.40687 -50.0052 1.1226 -18.51 -1.00602 2.13209 -0.664717 12.9486 1.14232 -0.0 0.0 -0.0 12.0811 19.6974 -24.1414 -18.3349 24.1615 -64.6619 0.405225 11.3507 -0.040271 14.0383 -0.279386 1.76703 1.35923 9.08655 -5.32513 0.0 0.0 0.0 -10.7552 40.9467 4.3742 4.63149 -0.218242 -0.676888 36.7838 -13.4485 -4.82398 -40.1293 0.0 0.0 -0.0 0.0 -0.0 5.35482 23.8389 -1.59003 -13.9431 -0.318612 -2.11076 37.4243 -2.58579 4.63285 -25.5552 0.0 0.0 0.0 0.0 0.0 
3542.25850067 734.977 -1483.81395072 -1.44406474296 45.8990563937 -1.84608359254 0.305568 0.36652 2.83751 0.310028 0.185294 2.85506 0.321155 -0.403291 2.83252 0.309963 0.0489235 2.86064 -5.91457 14.7891 -3.48349 -5.73354 29.8989 -0.755787 -0.0 0.0 -0.0 -3.39407 23.3559 -1.96036 4.439 -18.8773 59.4473 2.40687 -50.0052 1.1226 -18.51 -1.00602 2.13209 -0.664717 12.9486 1.14232 -0.0 0.0 -0.0 12.0811 19.6974 -24.1414 -18.3349 24.1615 -64.6619 0.405225 11.3507 -0.040271 14.0383 -0.279386 1.76703 1.35923 9.08655 -5.32513 0.0 0.0 0.0 -10.7552 40.9467 4.3742 4.63149 -0.218242 -0.676888 36.7838 -13.4485 -4.82398 -40.1293 0.0 0.0 -0.0 0.0 -0.0 5.35482 23.8389 -1.59003 -13.9431 -0.318612 -2.11076 37.4243 -2.58579 4.63285 -25.5552 0.0 0.0 0.0 0.0 0.0 
